<?xml version="1.0" encoding="utf-8"?>
<!-- Generator: Adobe Illustrator 23.0.5, SVG Export Plug-In . SVG Version: 6.00 Build 0)  -->
<svg version="1.1" id="Calque_1" xmlns="http://www.w3.org/2000/svg" xmlns:xlink="http://www.w3.org/1999/xlink" x="0px" y="0px"
	 viewBox="0 0 2080 1160.98" style="enable-background:new 0 0 2080 1160.98;" xml:space="preserve">
<style type="text/css">
	.st0{fill:#1B2D91;}
	.st1{fill:#189332;}
	.st2{fill:#FFFFFF;}
</style>
<g>
	<text transform="matrix(1 0 0 1 -456.3156 -967.2665)"><tspan x="0" y="0" class="st0" style="font-family:'Poppins-Bold'; font-size:12.7788px;">Emotional</tspan><tspan x="66.74" y="0" class="st2" style="font-family:'Poppins-Bold'; font-size:12.7788px;"> </tspan><tspan x="69.45" y="0" class="st1" style="font-family:'Poppins-Bold'; font-size:12.7788px;">Marketing</tspan></text>
	<path class="st0" d="M-370.71-1015.19c-2.55,2.24-3.6,3.5-6.24,5.61c-7.62,6.1-15.07,12.48-23.72,17.12
		c-8.3,4.45-17,6.48-26.23,3.03c-9.37-3.5-15.08-11.95-15.49-21.42c-0.4-9.21,3.04-16.35,10.61-21.55
		c8.92-6.14,25.81-5.89,33.58,6.07c-0.55,0.6-1.13,1.27-1.76,1.9c-5.98,5.93-11.96,11.84-17.95,17.76c-0.97,0.96-1.88,1.97-2.9,2.86
		c-1.89,1.66-4.14,1.61-5.82-0.05c-1.32-1.3-1.45-3.98-0.05-5.59c1.33-1.53,2.88-2.87,4.36-4.27c4.14-3.91,8.29-7.8,12.73-11.97
		c-1.03-0.71-1.68-1.42-2.47-1.65c-9.18-2.7-17.71,0.9-21.18,9.36c-3.95,9.64,3.5,21.41,13.9,21.95c5.37,0.28,10.24-1.3,14.86-3.62
		c5.71-2.87,10.8-6.71,15.58-10.99c5.15-4.61,7.78-6.58,13.09-11.01"/>
	<polygon class="st1" points="-399.31,-991.84 -389.73,-997.57 -389.73,-988.25 -399.31,-988.25 	"/>
	<g>
		<path class="st1" d="M-359.44-1016.68v28.7h-9.58v-28.7c0-2.77-1.08-5.37-3.03-7.32s-4.56-3.03-7.32-3.03
			c-5.71,0-10.36,4.64-10.36,10.35v4.84l-9.58,7.22v-12.06c0-10.99,8.95-19.94,19.94-19.94c5.33,0,10.33,2.07,14.1,5.84
			C-361.51-1027.01-359.44-1022-359.44-1016.68z"/>
		<path class="st1" d="M-332.86-1016.68v28.7h-9.58v-28.7c0-2.77-1.08-5.37-3.03-7.32c-1.96-1.96-4.56-3.03-7.32-3.03
			c-1.85,0-3.58,0.48-5.08,1.33l-5.2-8.06c3-1.81,6.52-2.86,10.28-2.86c5.33,0,10.33,2.07,14.1,5.84
			C-334.93-1027.01-332.86-1022-332.86-1016.68z"/>
	</g>
</g>
<g>
	<path class="st2" d="M39.54,972.19v27.56h44.44v25.62H39.54v29.88H89.8v26.59H6.36V945.6H89.8v26.59H39.54z"/>
	<path class="st2" d="M281.62,984.61c7.96,8.15,11.93,19.47,11.93,33.96v63.26h-32.99v-58.8c0-6.99-1.84-12.39-5.53-16.2
		c-3.69-3.81-8.77-5.72-15.23-5.72c-6.47,0-11.55,1.91-15.23,5.72c-3.69,3.82-5.53,9.22-5.53,16.2v58.8h-32.99v-58.8
		c0-6.99-1.84-12.39-5.53-16.2c-3.69-3.81-8.77-5.72-15.23-5.72c-6.47,0-11.55,1.91-15.23,5.72c-3.69,3.82-5.53,9.22-5.53,16.2v58.8
		h-33.18V973.55h33.18v13.58c3.36-4.53,7.76-8.12,13.2-10.77c5.43-2.65,11.58-3.98,18.44-3.98c8.15,0,15.43,1.75,21.83,5.24
		c6.4,3.49,11.42,8.47,15.04,14.94c3.75-5.95,8.86-10.8,15.33-14.55c6.47-3.75,13.52-5.63,21.15-5.63
		C262.96,972.38,273.67,976.46,281.62,984.61z"/>
	<path class="st2" d="M337.51,1076.59c-8.47-4.53-15.14-10.99-19.99-19.41c-4.85-8.41-7.28-18.24-7.28-29.5
		c0-11.12,2.46-20.92,7.37-29.4c4.92-8.47,11.64-14.97,20.18-19.5c8.54-4.53,18.11-6.79,28.72-6.79c10.61,0,20.18,2.26,28.72,6.79
		c8.54,4.53,15.26,11.03,20.18,19.5c4.92,8.47,7.37,18.27,7.37,29.4c0,11.13-2.49,20.93-7.47,29.4
		c-4.98,8.47-11.77,14.98-20.38,19.5c-8.61,4.53-18.21,6.79-28.82,6.79C355.52,1083.38,345.98,1081.12,337.51,1076.59z
		 M382.33,1047.68c4.46-4.66,6.7-11.32,6.7-19.99c0-8.66-2.17-15.33-6.5-19.99c-4.34-4.66-9.67-6.99-16.01-6.99
		c-6.47,0-11.84,2.3-16.11,6.89c-4.27,4.59-6.4,11.29-6.4,20.08c0,8.67,2.1,15.33,6.31,19.99c4.2,4.66,9.48,6.99,15.82,6.99
		C372.47,1054.66,377.87,1052.33,382.33,1047.68z"/>
	<path class="st2" d="M500.8,1053.69v28.14h-16.88c-12.03,0-21.41-2.94-28.14-8.83c-6.73-5.89-10.09-15.49-10.09-28.82v-43.08h-13.2
		v-27.56h13.2v-26.39h33.18v26.39h21.73v27.56h-21.73v43.47c0,3.24,0.78,5.56,2.33,6.99c1.55,1.42,4.14,2.13,7.76,2.13H500.8z"/>
	<path class="st2" d="M521.66,957.15c-3.69-3.43-5.53-7.67-5.53-12.71c0-5.17,1.84-9.48,5.53-12.9c3.69-3.43,8.44-5.14,14.26-5.14
		c5.69,0,10.38,1.72,14.07,5.14c3.69,3.43,5.53,7.73,5.53,12.9c0,5.05-1.84,9.28-5.53,12.71c-3.69,3.43-8.38,5.14-14.07,5.14
		C530.1,962.29,525.35,960.58,521.66,957.15z M552.42,973.55v108.28h-33.18V973.55H552.42z"/>
	<path class="st2" d="M597.15,1076.59c-8.47-4.53-15.14-10.99-19.99-19.41c-4.85-8.41-7.28-18.24-7.28-29.5
		c0-11.12,2.46-20.92,7.37-29.4c4.92-8.47,11.64-14.97,20.18-19.5c8.54-4.53,18.11-6.79,28.72-6.79c10.61,0,20.18,2.26,28.72,6.79
		c8.54,4.53,15.26,11.03,20.18,19.5c4.92,8.47,7.37,18.27,7.37,29.4c0,11.13-2.49,20.93-7.47,29.4
		c-4.98,8.47-11.77,14.98-20.38,19.5c-8.61,4.53-18.21,6.79-28.82,6.79C615.16,1083.38,605.62,1081.12,597.15,1076.59z
		 M641.98,1047.68c4.46-4.66,6.7-11.32,6.7-19.99c0-8.66-2.17-15.33-6.5-19.99c-4.34-4.66-9.67-6.99-16.01-6.99
		c-6.47,0-11.84,2.3-16.11,6.89c-4.27,4.59-6.4,11.29-6.4,20.08c0,8.67,2.1,15.33,6.31,19.99c4.2,4.66,9.48,6.99,15.82,6.99
		C632.11,1054.66,637.51,1052.33,641.98,1047.68z"/>
	<path class="st2" d="M796.44,984.71c7.57,8.22,11.35,19.5,11.35,33.86v63.26h-32.99v-58.8c0-7.24-1.88-12.87-5.63-16.88
		c-3.75-4.01-8.8-6.02-15.14-6.02c-6.34,0-11.39,2.01-15.14,6.02c-3.75,4.01-5.63,9.64-5.63,16.88v58.8h-33.18V973.55h33.18v14.36
		c3.36-4.78,7.89-8.57,13.58-11.35c5.69-2.78,12.09-4.17,19.21-4.17C778.75,972.38,788.88,976.49,796.44,984.71z"/>
	<path class="st2" d="M830.6,998.19c4.2-8.41,9.93-14.88,17.17-19.41c7.24-4.53,15.33-6.79,24.26-6.79c7.63,0,14.33,1.55,20.08,4.66
		c5.75,3.11,10.19,7.18,13.29,12.23v-15.33h33.18v108.28H905.4v-15.33c-3.23,5.04-7.73,9.12-13.49,12.23
		c-5.76,3.1-12.45,4.66-20.08,4.66c-8.8,0-16.82-2.3-24.06-6.89c-7.25-4.59-12.97-11.12-17.17-19.6c-4.21-8.47-6.31-18.27-6.31-29.4
		C824.29,1016.37,826.39,1006.6,830.6,998.19z M898.51,1008.09c-4.59-4.78-10.19-7.18-16.79-7.18c-6.6,0-12.2,2.36-16.79,7.08
		c-4.59,4.72-6.89,11.22-6.89,19.5c0,8.28,2.29,14.84,6.89,19.7c4.59,4.85,10.19,7.28,16.79,7.28c6.6,0,12.19-2.39,16.79-7.18
		c4.59-4.78,6.89-11.32,6.89-19.6C905.4,1019.41,903.11,1012.88,898.51,1008.09z"/>
	<path class="st2" d="M995.83,938.23v143.6h-33.18v-143.6H995.83z"/>
	<path class="st2" d="M1215.3,945.6v136.23h-33.18v-81.7l-30.47,81.7h-26.78l-30.66-81.89v81.89h-33.18V945.6h39.2l38.23,94.31
		l37.84-94.31H1215.3z"/>
	<path class="st2" d="M1238.88,998.19c4.2-8.41,9.93-14.88,17.17-19.41c7.24-4.53,15.33-6.79,24.26-6.79
		c7.63,0,14.33,1.55,20.08,4.66c5.75,3.11,10.19,7.18,13.29,12.23v-15.33h33.18v108.28h-33.18v-15.33
		c-3.23,5.04-7.73,9.12-13.49,12.23c-5.76,3.1-12.45,4.66-20.08,4.66c-8.8,0-16.82-2.3-24.06-6.89
		c-7.25-4.59-12.97-11.12-17.17-19.6c-4.21-8.47-6.31-18.27-6.31-29.4C1232.58,1016.37,1234.68,1006.6,1238.88,998.19z
		 M1306.8,1008.09c-4.59-4.78-10.19-7.18-16.79-7.18c-6.6,0-12.2,2.36-16.79,7.08c-4.59,4.72-6.89,11.22-6.89,19.5
		c0,8.28,2.29,14.84,6.89,19.7c4.59,4.85,10.19,7.28,16.79,7.28c6.6,0,12.19-2.39,16.79-7.18c4.59-4.78,6.89-11.32,6.89-19.6
		C1313.69,1019.41,1311.39,1012.88,1306.8,1008.09z"/>
	<path class="st2" d="M1418.67,977.53c5.82-3.43,12.29-5.14,19.41-5.14v35.12h-9.12c-8.28,0-14.49,1.78-18.63,5.34
		c-4.14,3.56-6.21,9.8-6.21,18.73v50.26h-33.18V973.55h33.18v18.05C1408,985.65,1412.85,980.96,1418.67,977.53z"/>
	<path class="st2" d="M1520.16,1081.83l-32.99-45.41v45.41h-33.18v-143.6h33.18v79.37l32.79-44.05h40.95l-45.02,54.33l45.41,53.95
		H1520.16z"/>
	<path class="st2" d="M1675.4,1035.65h-75.1c0.52,6.73,2.68,11.87,6.5,15.43c3.81,3.56,8.5,5.34,14.07,5.34
		c8.28,0,14.04-3.49,17.27-10.48h35.32c-1.81,7.12-5.08,13.52-9.8,19.21c-4.72,5.69-10.64,10.16-17.76,13.39
		c-7.12,3.24-15.07,4.85-23.87,4.85c-10.61,0-20.05-2.26-28.33-6.79c-8.28-4.53-14.75-10.99-19.41-19.41
		c-4.66-8.41-6.99-18.24-6.99-29.5c0-11.25,2.29-21.08,6.89-29.5c4.59-8.41,11.03-14.88,19.31-19.41
		c8.28-4.53,17.79-6.79,28.53-6.79c10.48,0,19.79,2.2,27.94,6.6c8.15,4.4,14.52,10.67,19.11,18.82c4.59,8.15,6.89,17.66,6.89,28.53
		C1675.99,1029.05,1675.79,1032.28,1675.4,1035.65z M1642.03,1017.21c0-5.69-1.94-10.22-5.82-13.58c-3.88-3.36-8.73-5.04-14.55-5.04
		c-5.56,0-10.25,1.62-14.07,4.85c-3.82,3.24-6.18,7.83-7.08,13.78H1642.03z"/>
	<path class="st2" d="M1753.8,1053.69v28.14h-16.88c-12.03,0-21.41-2.94-28.14-8.83c-6.73-5.89-10.09-15.49-10.09-28.82v-43.08
		h-13.2v-27.56h13.2v-26.39h33.18v26.39h21.73v27.56h-21.73v43.47c0,3.24,0.78,5.56,2.33,6.99c1.55,1.42,4.14,2.13,7.76,2.13H1753.8
		z"/>
	<path class="st2" d="M1774.66,957.15c-3.69-3.43-5.53-7.67-5.53-12.71c0-5.17,1.84-9.48,5.53-12.9c3.69-3.43,8.44-5.14,14.26-5.14
		c5.69,0,10.38,1.72,14.07,5.14c3.69,3.43,5.53,7.73,5.53,12.9c0,5.05-1.84,9.28-5.53,12.71c-3.69,3.43-8.38,5.14-14.07,5.14
		C1783.1,962.29,1778.35,960.58,1774.66,957.15z M1805.42,973.55v108.28h-33.18V973.55H1805.42z"/>
	<path class="st2" d="M1925.83,984.71c7.57,8.22,11.35,19.5,11.35,33.86v63.26h-32.99v-58.8c0-7.24-1.88-12.87-5.63-16.88
		c-3.75-4.01-8.8-6.02-15.14-6.02c-6.34,0-11.39,2.01-15.14,6.02c-3.75,4.01-5.63,9.64-5.63,16.88v58.8h-33.18V973.55h33.18v14.36
		c3.36-4.78,7.89-8.57,13.58-11.35c5.69-2.78,12.09-4.17,19.21-4.17C1908.13,972.38,1918.26,976.49,1925.83,984.71z"/>
	<path class="st2" d="M2021.5,976.65c5.75,3.11,10.19,7.18,13.29,12.23v-15.33h33.18v108.09c0,9.96-1.97,18.98-5.92,27.07
		c-3.95,8.08-9.96,14.52-18.05,19.31c-8.09,4.79-18.14,7.18-30.17,7.18c-16.04,0-29.04-3.78-39-11.35
		c-9.96-7.57-15.66-17.82-17.08-30.76h32.79c1.03,4.14,3.49,7.4,7.37,9.8c3.88,2.39,8.67,3.59,14.36,3.59
		c6.86,0,12.32-1.97,16.4-5.92c4.08-3.95,6.11-10.25,6.11-18.92v-15.33c-3.23,5.05-7.7,9.15-13.39,12.32
		c-5.69,3.17-12.36,4.75-19.99,4.75c-8.93,0-17.01-2.3-24.26-6.89c-7.25-4.59-12.97-11.12-17.17-19.6
		c-4.21-8.47-6.31-18.27-6.31-29.4c0-11.12,2.1-20.89,6.31-29.3c4.2-8.41,9.93-14.88,17.17-19.41c7.24-4.53,15.33-6.79,24.26-6.79
		C2009.04,972,2015.74,973.55,2021.5,976.65z M2027.9,1008.09c-4.59-4.78-10.19-7.18-16.79-7.18c-6.6,0-12.2,2.36-16.79,7.08
		c-4.59,4.72-6.89,11.22-6.89,19.5c0,8.28,2.29,14.84,6.89,19.7c4.59,4.85,10.19,7.28,16.79,7.28c6.6,0,12.19-2.39,16.79-7.18
		c4.59-4.78,6.89-11.32,6.89-19.6C2034.79,1019.41,2032.49,1012.88,2027.9,1008.09z"/>
</g>
<path class="st2" d="M1294.23,354.11c-38.65,34.06-54.6,53.1-94.76,85.24c-115.74,92.61-228.77,189.56-360.2,260.04
	c-125.97,67.55-258.15,98.39-398.29,46.08c-142.29-53.12-229.01-181.41-235.27-325.29c-6.08-139.9,46.17-248.3,161.06-327.3
	C502.25-0.29,758.76,3.43,876.64,185.06c-8.37,9.05-17.19,19.34-26.79,28.85c-90.78,89.98-181.69,179.83-272.54,269.73
	c-14.67,14.51-28.57,29.89-44.05,43.48c-28.68,25.17-62.85,24.41-88.35-0.71c-20.08-19.77-22.09-60.42-0.74-84.95
	c20.23-23.24,43.78-43.65,66.27-64.88c62.84-59.31,125.9-118.4,193.28-181.72c-15.63-10.72-25.47-21.55-37.46-25.08
	c-139.42-41-269,13.72-321.56,142.07c-59.94,146.37,53.12,325.07,211.08,333.39c81.53,4.29,155.56-19.7,225.63-54.93
	c86.73-43.6,163.95-101.92,236.65-166.89c78.28-69.95,118.21-99.86,198.85-167.15"/>
<polygon class="st2" points="859.95,708.72 1005.49,621.65 1005.49,763.22 859.95,763.22 "/>
<g>
	<path class="st2" d="M1465.51,331.5v435.82h-145.54V331.5c0-42.01-16.36-81.49-46.05-111.18s-69.17-46.05-111.18-46.05
		c-86.71,0-157.25,70.53-157.25,157.23v73.51L859.95,514.58V331.5c0-166.95,135.84-302.78,302.79-302.78
		c80.87,0,156.9,31.5,214.1,88.68C1434.01,174.59,1465.51,250.62,1465.51,331.5z"/>
	<path class="st2" d="M1869.08,331.5v435.82h-145.54V331.5c0-42.01-16.36-81.49-46.05-111.18c-29.71-29.69-69.19-46.05-111.18-46.05
		c-28.02,0-54.34,7.36-77.14,20.26l-78.99-122.37c45.62-27.55,99.07-43.43,156.13-43.43c80.87,0,156.9,31.5,214.08,88.68
		C1837.58,174.6,1869.08,250.64,1869.08,331.5z"/>
</g>
</svg>
